<svg width="30" height="30" viewBox="0 0 30 30" fill="none" xmlns="http://www.w3.org/2000/svg">
<path d="M14.964 29.9281C23.2284 29.9281 29.9281 23.2284 29.9281 14.964C29.9281 6.69962 23.2284 0 14.964 0C6.69962 0 0 6.69962 0 14.964C0 23.2284 6.69962 29.9281 14.964 29.9281Z" fill="white"/>
<path d="M19.0648 12.2302C19.5415 12.2302 19.9281 11.8437 19.9281 11.3669C19.9281 10.8901 19.5415 10.5036 19.0648 10.5036C18.588 10.5036 18.2014 10.8901 18.2014 11.3669C18.2014 11.8437 18.588 12.2302 19.0648 12.2302Z" fill="#969696"/>
<path d="M15.1799 11.5827C13.1655 11.5827 11.4388 13.2374 11.4388 15.3237C11.4388 17.3381 13.0935 18.9928 15.1799 18.9928C17.1942 18.9928 18.9209 17.3381 18.9209 15.3237C18.8489 13.2374 17.1942 11.5827 15.1799 11.5827ZM15.1799 17.6259C13.8849 17.6259 12.8057 16.5468 12.8057 15.2518C12.8057 13.9568 13.8849 12.8777 15.1799 12.8777C16.4748 12.8777 17.554 13.9568 17.554 15.2518C17.554 16.6187 16.4748 17.6259 15.1799 17.6259Z" fill="#969696"/>
<path d="M18.1295 7.69785H12.1583C9.64029 7.69785 7.6259 9.71223 7.6259 12.2302V18.2014C7.6259 20.7194 9.64029 22.7338 12.1583 22.7338H18.1295C20.6475 22.7338 22.6619 20.7194 22.6619 18.2014V12.2302C22.6619 9.71223 20.5755 7.69785 18.1295 7.69785ZM21.223 18.2014C21.223 19.9281 19.8561 21.295 18.1295 21.295H12.1583C10.4317 21.295 9.06475 19.9281 9.06475 18.2014V12.2302C9.06475 10.5036 10.4317 9.13669 12.1583 9.13669H18.1295C19.8561 9.13669 21.223 10.5036 21.223 12.2302V18.2014Z" fill="#969696"/>
</svg>
