<svg width="35" height="34" viewBox="0 0 35 34" fill="none" xmlns="http://www.w3.org/2000/svg">
<path d="M17.458 33.9185C27.0998 33.9185 34.9161 26.3256 34.9161 16.9592C34.9161 7.59291 27.0998 0 17.458 0C7.81623 0 0 7.59291 0 16.9592C0 26.3256 7.81623 33.9185 17.458 33.9185Z" fill="white"/>
<path d="M24.8441 12.4748C24.3405 12.7194 23.8369 12.801 23.3333 12.8825C23.5851 12.8825 23.9209 12.3933 24.0887 12.2302C24.3405 11.9856 24.5084 11.6595 24.5923 11.3333V11.2518H24.5084C23.9209 11.5779 23.3333 11.741 22.7458 11.9041C22.6619 11.9041 22.6619 11.9041 22.6619 11.9041C22.5779 11.8226 22.5779 11.8225 22.494 11.741C22.2422 11.4964 21.9904 11.3333 21.6547 11.2518C21.235 11.0887 20.8153 11.0072 20.3118 11.0072C19.8921 11.0072 19.4724 11.1703 19.0528 11.3333C18.6331 11.4964 18.2974 11.8225 18.0456 12.1487C17.7938 12.4748 17.542 12.8825 17.458 13.2902C17.3741 13.6978 17.3741 14.1055 17.458 14.5132C17.458 14.5947 17.458 14.5947 17.3741 14.5947C14.94 14.2686 12.9257 13.3717 11.247 11.5779C11.1631 11.4964 11.1631 11.4964 11.0791 11.5779C10.3237 12.6379 10.7434 14.2686 11.5827 15.1655C11.6667 15.247 11.8345 15.4101 11.9185 15.4916C11.8345 15.4916 11.247 15.4101 10.7434 15.1655C10.6595 15.0839 10.6595 15.1655 10.6595 15.247C10.6595 15.3285 10.6595 15.4916 10.6595 15.5731C10.8273 16.6331 11.5827 17.6115 12.5899 18.0192C12.6739 18.1007 12.8417 18.1007 13.0096 18.1007C12.7578 18.1823 12.506 18.1823 11.8345 18.1007C11.7506 18.1007 11.7506 18.1007 11.7506 18.1823C12.2542 19.4868 13.3453 19.8945 14.1847 20.1391C14.2686 20.1391 14.4365 20.1391 14.5204 20.2206C14.2686 20.6283 13.2614 20.9544 12.8417 21.036C12.0863 21.2806 11.1631 21.4437 10.3237 21.3621C10.1559 21.3621 10.1559 21.3621 10.1559 21.3621C10.1559 21.3621 10.1559 21.4437 10.2398 21.4437C10.4077 21.5252 10.5755 21.6883 10.7434 21.7698C11.247 22.0144 11.8345 22.259 12.4221 22.4221C15.4436 23.2374 18.801 22.6667 21.0671 20.4652C22.8297 18.753 23.5012 16.3885 23.5012 14.024C23.5012 13.9425 23.5851 13.8609 23.6691 13.8609C24.1727 13.5348 24.5084 13.1271 24.8441 12.6379C24.8441 12.6379 24.8441 12.5564 24.8441 12.4748Z" fill="#969696"/>
</svg>
