<svg width="34" height="34" viewBox="0 0 34 34" fill="none" xmlns="http://www.w3.org/2000/svg">
<path d="M16.9592 33.9185C26.3256 33.9185 33.9185 26.3256 33.9185 16.9592C33.9185 7.59291 26.3256 0 16.9592 0C7.59291 0 0 7.59291 0 16.9592C0 26.3256 7.59291 33.9185 16.9592 33.9185Z" fill="white"/>
<path d="M24.6235 15.1655C24.6235 13.3717 23.1559 11.8225 21.2806 11.8225H12.7194C10.9257 11.8225 9.3765 13.2902 9.3765 15.1655V19.1607C9.3765 20.9544 10.8441 22.5036 12.7194 22.5036H21.2806C23.0743 22.5036 24.6235 21.036 24.6235 19.1607V15.1655ZM19.1607 17.4484L15.7362 19.3237C15.5731 19.4053 15.4916 19.3237 15.4916 19.1607V15.3285C15.4916 15.1655 15.6547 15.0839 15.8177 15.1655L19.2422 17.1223C19.3237 17.1223 19.3237 17.3669 19.1607 17.4484Z" fill="#969696"/>
</svg>
