<svg width="329" height="115" viewBox="0 0 329 115" fill="none" xmlns="http://www.w3.org/2000/svg">
<g clip-path="url(#clip0)">
<path fill-rule="evenodd" clip-rule="evenodd" d="M139.379 86.4856L139.214 87.6747H138.012L137.251 93.2774H135.888L136.655 87.6372H136L136.149 86.4856H136.777L137.139 83.8771H138.496L138.139 86.4856H139.379Z" fill="#423D3F"/>
<path fill-rule="evenodd" clip-rule="evenodd" d="M146.903 89.2708C146.903 90.3207 146.547 91.2527 145.828 92.0775C145.036 92.9774 144.046 93.4273 142.854 93.4273C142.093 93.4273 141.428 93.1756 140.864 92.6667C140.225 92.0883 139.906 91.333 139.906 90.3957C139.906 89.3619 140.273 88.4353 141.013 87.6265C141.79 86.7748 142.732 86.3463 143.838 86.3463C144.727 86.3463 145.451 86.6034 146.009 87.1069C146.605 87.6425 146.903 88.3603 146.903 89.2708ZM145.616 89.5708C145.616 88.9441 145.445 88.4567 145.099 88.1085C144.759 87.7657 144.301 87.589 143.737 87.589C142.982 87.589 142.348 87.8836 141.843 88.4728C141.385 89.0084 141.151 89.6029 141.151 90.2618C141.151 90.8777 141.359 91.3705 141.779 91.7347C142.141 92.0454 142.556 92.1954 143.035 92.1954C143.737 92.1954 144.349 91.9169 144.865 91.3598C145.366 90.8295 145.616 90.2296 145.616 89.5708Z" fill="#423D3F"/>
<path fill-rule="evenodd" clip-rule="evenodd" d="M155.369 81.0811L153.72 93.2773H152.272L152.395 92.5703C151.756 93.1756 151.006 93.4809 150.144 93.4809C149.404 93.4809 148.792 93.2184 148.303 92.6989C147.781 92.1472 147.521 91.4187 147.521 90.5189C147.521 89.4797 147.819 88.5424 148.409 87.7122C149.09 86.748 149.979 86.266 151.08 86.266C151.932 86.266 152.618 86.5659 153.14 87.1658L153.959 81.0811H155.369ZM152.969 89.5869C152.969 88.1889 152.379 87.4872 151.197 87.4872C150.516 87.4872 149.947 87.7818 149.489 88.371C149.064 88.9013 148.851 89.4958 148.851 90.1493C148.851 90.7492 149.053 91.2527 149.463 91.6544C149.851 92.04 150.309 92.2382 150.83 92.2382C151.442 92.2382 151.953 91.9543 152.373 91.3866C152.773 90.8563 152.969 90.2564 152.969 89.5869Z" fill="#423D3F"/>
<path fill-rule="evenodd" clip-rule="evenodd" d="M162.425 89.2708C162.425 90.3207 162.069 91.2527 161.35 92.0775C160.557 92.9774 159.568 93.4273 158.376 93.4273C157.615 93.4273 156.95 93.1756 156.386 92.6667C155.747 92.0883 155.428 91.333 155.428 90.3957C155.428 89.3619 155.795 88.4353 156.535 87.6265C157.311 86.7748 158.253 86.3463 159.36 86.3463C160.249 86.3463 160.972 86.6034 161.531 87.1069C162.127 87.6425 162.425 88.3603 162.425 89.2708ZM161.132 89.5708C161.132 88.9441 160.962 88.4567 160.616 88.1085C160.275 87.7657 159.818 87.589 159.254 87.589C158.498 87.589 157.865 87.8836 157.359 88.4728C156.902 89.0084 156.668 89.6029 156.668 90.2618C156.668 90.8777 156.875 91.3705 157.296 91.7347C157.657 92.0454 158.072 92.1954 158.551 92.1954C159.254 92.1954 159.866 91.9169 160.382 91.3598C160.887 90.8295 161.132 90.2296 161.132 89.5708Z" fill="#423D3F"/>
<path fill-rule="evenodd" clip-rule="evenodd" d="M169.944 93.4595C169.465 93.4595 169.082 93.4006 168.795 93.2881C168.502 93.1702 168.172 92.9399 167.8 92.5864L167.209 97H165.921L167.342 86.4802H168.736L168.63 87.2355C169.279 86.6195 170.024 86.3035 170.864 86.2928C171.641 86.282 172.275 86.582 172.764 87.1926C173.227 87.7657 173.461 88.4781 173.461 89.3298C173.461 90.3903 173.137 91.3277 172.482 92.1472C171.785 93.0203 170.939 93.4595 169.944 93.4595ZM172.136 89.5065C172.136 88.9495 171.993 88.4888 171.711 88.1246C171.407 87.7229 170.998 87.5301 170.487 87.5354C169.784 87.5408 169.204 87.8354 168.741 88.4246C168.316 88.9709 168.103 89.619 168.103 90.3689C168.103 91.5794 168.699 92.2115 169.88 92.2597C170.508 92.2811 171.051 91.9865 171.503 91.3705C171.929 90.7974 172.136 90.1814 172.136 89.5065Z" fill="#423D3F"/>
<path fill-rule="evenodd" clip-rule="evenodd" d="M181.102 89.2708C181.102 90.3207 180.746 91.2527 180.028 92.0775C179.235 92.9774 178.245 93.4273 177.053 93.4273C176.292 93.4273 175.627 93.1756 175.063 92.6667C174.424 92.0883 174.105 91.333 174.105 90.3957C174.105 89.3619 174.472 88.4353 175.212 87.6265C175.989 86.7748 176.931 86.3463 178.037 86.3463C178.926 86.3463 179.655 86.6034 180.208 87.1069C180.804 87.6425 181.102 88.3603 181.102 89.2708ZM179.809 89.5708C179.809 88.9441 179.639 88.4567 179.293 88.1085C178.953 87.7657 178.495 87.589 177.931 87.589C177.175 87.589 176.542 87.8836 176.037 88.4728C175.579 89.0084 175.345 89.6029 175.345 90.2618C175.345 90.8777 175.552 91.3705 175.973 91.7347C176.335 92.0454 176.75 92.1954 177.229 92.1954C177.931 92.1954 178.543 91.9169 179.059 91.3598C179.559 90.8295 179.809 90.2296 179.809 89.5708Z" fill="#423D3F"/>
<path fill-rule="evenodd" clip-rule="evenodd" d="M187.248 86.6623L186.429 87.8782C186.147 87.6907 185.86 87.5943 185.583 87.5943C185.232 87.5943 184.912 87.7389 184.625 88.0228C184.231 88.4138 183.976 89.0351 183.859 89.8761L183.396 93.2719H182.044L182.959 86.4802H184.269L184.173 87.1979C184.668 86.8658 184.918 86.6944 184.923 86.6891C185.189 86.5284 185.466 86.4212 185.742 86.3623C185.87 86.3409 185.998 86.3248 186.126 86.3248C186.509 86.3302 186.887 86.4427 187.248 86.6623Z" fill="#423D3F"/>
<path fill-rule="evenodd" clip-rule="evenodd" d="M197.007 90.1225H191.958C191.947 90.251 191.942 90.3689 191.942 90.4867C191.942 91.5633 192.484 92.1364 193.575 92.2007C194.022 92.2329 194.485 92.0722 194.953 91.7294C195.374 91.424 195.672 91.0866 195.842 90.7117L196.837 91.3919C196.507 91.9865 196.055 92.4792 195.475 92.8702C194.831 93.3095 194.177 93.5184 193.511 93.4969C192.564 93.4594 191.835 93.1595 191.33 92.5864C190.861 92.0615 190.633 91.3705 190.633 90.5135C190.633 90.2832 190.649 90.0528 190.686 89.8118C190.83 88.8102 191.218 87.9853 191.856 87.3211C192.543 86.6034 193.373 86.2499 194.352 86.2499C195.172 86.2499 195.831 86.5231 196.332 87.0748C196.837 87.6264 197.092 88.3495 197.092 89.2548C197.087 89.5494 197.061 89.8332 197.007 90.1225ZM195.736 89.0351C195.619 88.0549 195.124 87.5515 194.246 87.53C193.788 87.5193 193.368 87.6532 192.995 87.9318C192.628 88.2103 192.373 88.5799 192.218 89.0405H195.736V89.0351Z" fill="#423D3F"/>
<path fill-rule="evenodd" clip-rule="evenodd" d="M201.153 81.0811L199.487 93.2773H198.088L199.764 81.0811H201.153Z" fill="#423D3F"/>
<path fill-rule="evenodd" clip-rule="evenodd" d="M210.215 88.6817L209.587 93.2774H208.267L208.815 89.2334C208.836 89.0781 208.847 88.9281 208.847 88.7996C208.847 87.964 208.448 87.5408 207.644 87.5301C207.219 87.5248 206.841 87.6962 206.5 88.039C206.165 88.3818 205.963 88.7888 205.899 89.2441L205.351 93.2774H203.989L204.904 86.4856H206.229L206.144 87.1284H206.25C206.915 86.566 207.575 86.2821 208.23 86.2821C208.485 86.2821 208.746 86.3196 209.012 86.3999C209.831 86.6356 210.241 87.2409 210.241 88.2157C210.252 88.3711 210.241 88.521 210.215 88.6817Z" fill="#423D3F"/>
<path fill-rule="evenodd" clip-rule="evenodd" d="M212.907 84.2734C212.694 84.2734 212.513 84.2038 212.375 84.0538C212.237 83.9038 212.178 83.6949 212.199 83.4271C212.221 83.1914 212.322 82.9825 212.497 82.8111C212.678 82.629 212.886 82.538 213.115 82.5273C213.317 82.5219 213.487 82.5915 213.631 82.7362C213.774 82.8808 213.849 83.0575 213.849 83.2718C213.849 83.545 213.753 83.7806 213.572 83.9788C213.386 84.177 213.162 84.2734 212.907 84.2734ZM213.301 86.4856L212.386 93.2773H211.018L211.944 86.4856H213.301Z" fill="#423D3F"/>
<path fill-rule="evenodd" clip-rule="evenodd" d="M220.256 88.6816L219.628 93.2773H218.308L218.856 89.2333C218.877 89.078 218.893 88.928 218.893 88.7995C218.893 87.9639 218.494 87.5407 217.691 87.53C217.265 87.5247 216.887 87.6961 216.547 88.0389C216.206 88.3817 216.009 88.7888 215.945 89.244L215.397 93.2773H214.035L214.95 86.4855H216.275L216.19 87.1283H216.297C216.962 86.5659 217.622 86.282 218.276 86.282C218.531 86.282 218.792 86.3195 219.064 86.3998C219.883 86.6355 220.293 87.2408 220.293 88.2156C220.293 88.371 220.282 88.5209 220.256 88.6816ZM220.883 83.6574L220.724 83.9199C220.522 84.2573 220.277 84.5519 220 84.8037C219.654 85.1197 219.324 85.275 219.016 85.275C218.702 85.275 218.404 85.1518 218.127 84.9108L217.552 84.4127C217.355 84.2413 217.175 84.1716 217.01 84.1931C216.861 84.2198 216.68 84.3537 216.467 84.6001C216.318 84.7715 216.222 84.8947 216.19 84.9751L216.015 85.2375L215.36 84.9376L215.621 84.5573C216.169 83.7646 216.685 83.3468 217.175 83.3146C217.515 83.2878 217.808 83.3789 218.047 83.5878L218.76 84.1984C218.931 84.343 219.074 84.418 219.186 84.418C219.26 84.418 219.335 84.3966 219.415 84.3537C219.527 84.2948 219.745 84.0431 220.069 83.5985L220.272 83.3253L220.883 83.6574Z" fill="#423D3F"/>
<path fill-rule="evenodd" clip-rule="evenodd" d="M228.046 89.2708C228.046 90.3207 227.689 91.2527 226.971 92.0775C226.178 92.9774 225.188 93.4273 223.996 93.4273C223.235 93.4273 222.57 93.1756 222.006 92.6667C221.368 92.0883 221.048 91.333 221.048 90.3957C221.048 89.3619 221.416 88.4353 222.155 87.6265C222.932 86.7748 223.879 86.3463 224.981 86.3463C225.869 86.3463 226.593 86.6034 227.152 87.1069C227.748 87.6425 228.046 88.3603 228.046 89.2708ZM226.753 89.5708C226.753 88.9441 226.582 88.4567 226.237 88.1085C225.896 87.7657 225.438 87.589 224.874 87.589C224.119 87.589 223.485 87.8836 222.98 88.4728C222.522 89.0084 222.294 89.6029 222.294 90.2618C222.294 90.8777 222.501 91.3705 222.921 91.7347C223.283 92.0454 223.698 92.1954 224.177 92.1954C224.88 92.1954 225.492 91.9169 226.008 91.3598C226.508 90.8295 226.753 90.2296 226.753 89.5708Z" fill="#423D3F"/>
<path fill-rule="evenodd" clip-rule="evenodd" d="M238.778 86.4856L237.358 97.0054H236.065L236.666 92.5918C235.937 93.1756 235.144 93.4649 234.277 93.4649C233.473 93.4649 232.84 93.1703 232.366 92.5757C231.941 92.0294 231.728 91.3384 231.728 90.4975C231.728 89.4477 232.069 88.4996 232.739 87.6426C233.452 86.7267 234.309 86.2821 235.293 86.2981C236.129 86.3089 236.788 86.6249 237.273 87.2409L237.379 86.4856H238.778ZM237.033 89.9886C237.06 89.8172 237.076 89.6512 237.076 89.4798C237.076 88.9281 236.932 88.4728 236.639 88.1193C236.325 87.739 235.889 87.5462 235.341 87.5355C234.702 87.5301 234.149 87.8247 233.691 88.4192C233.266 88.9763 233.053 89.5976 233.053 90.2832C233.053 90.8403 233.191 91.3063 233.473 91.6812C233.777 92.0883 234.176 92.2811 234.671 92.2651C235.985 92.2115 236.778 91.4563 237.033 89.9886Z" fill="#423D3F"/>
<path fill-rule="evenodd" clip-rule="evenodd" d="M245.872 86.4856L245.281 90.926C245.175 91.7294 244.797 92.3829 244.137 92.8756C243.52 93.347 242.823 93.5773 242.046 93.5666C241.317 93.5559 240.731 93.3363 240.29 92.9131C239.827 92.4686 239.593 91.8633 239.593 91.0974C239.593 90.926 239.603 90.7546 239.625 90.5724L240.173 86.4856H241.567L241.093 90.1118C241.056 90.3635 241.04 90.5939 241.04 90.8028C241.04 91.7722 241.466 92.249 242.312 92.2382C243.259 92.2275 243.823 91.5741 243.993 90.2886L244.499 86.491H245.872V86.4856Z" fill="#423D3F"/>
<path fill-rule="evenodd" clip-rule="evenodd" d="M252.779 90.1225H247.729C247.718 90.251 247.713 90.3689 247.713 90.4867C247.713 91.5633 248.256 92.1364 249.346 92.2007C249.793 92.2329 250.251 92.0722 250.725 91.7294C251.145 91.424 251.443 91.0866 251.613 90.7117L252.608 91.3919C252.278 91.9865 251.821 92.4792 251.246 92.8702C250.602 93.3095 249.948 93.5184 249.283 93.4969C248.335 93.4594 247.606 93.1595 247.101 92.5864C246.638 92.0615 246.404 91.3705 246.404 90.5135C246.404 90.2832 246.42 90.0528 246.457 89.8118C246.601 88.8102 246.989 87.9853 247.628 87.3211C248.314 86.6034 249.144 86.2499 250.123 86.2499C250.943 86.2499 251.603 86.5231 252.103 87.0748C252.608 87.6264 252.864 88.3495 252.864 89.2548C252.858 89.5494 252.832 89.8332 252.779 90.1225ZM251.507 89.0351C251.39 88.0549 250.895 87.5515 250.017 87.53C249.559 87.5193 249.144 87.6532 248.772 87.9318C248.405 88.2103 248.144 88.5799 247.995 89.0405H251.507V89.0351Z" fill="#423D3F"/>
<path fill-rule="evenodd" clip-rule="evenodd" d="M263.027 88.2263L262.341 93.2773H261.016L261.612 88.8905C261.628 88.778 261.638 88.6709 261.638 88.5745C261.638 87.8728 261.292 87.5407 260.601 87.5729C260.196 87.5943 259.85 87.7657 259.574 88.0978C259.324 88.3924 259.169 88.762 259.111 89.1958L258.563 93.272H257.2L257.812 88.7245C257.823 88.6548 257.828 88.5799 257.828 88.5156C257.828 87.8782 257.514 87.5568 256.886 87.5515C256.525 87.5461 256.189 87.6854 255.881 87.98C255.577 88.2638 255.402 88.6013 255.349 88.9977L254.774 93.2773H253.428L254.354 86.4856H255.663L255.556 87.2408C256.104 86.5659 256.769 86.2499 257.552 86.2767C258.254 86.3034 258.775 86.6087 259.111 87.2033C259.76 86.5659 260.478 86.2499 261.255 86.2499C261.761 86.2499 262.176 86.3784 262.506 86.6409C262.873 86.9301 263.054 87.3479 263.054 87.8835C263.054 87.9907 263.043 88.1032 263.027 88.2263Z" fill="#423D3F"/>
<path fill-rule="evenodd" clip-rule="evenodd" d="M270.594 86.4856L269.678 93.2774H268.332L268.417 92.5329C268.189 92.7525 267.869 92.9507 267.449 93.1328C266.959 93.3524 266.507 93.4595 266.087 93.4488C265.257 93.4381 264.607 93.1381 264.139 92.5489C263.713 92.0079 263.501 91.3116 263.501 90.46C263.501 89.3887 263.82 88.4407 264.458 87.6265C265.134 86.7641 265.98 86.3249 266.997 86.2981C267.752 86.2821 268.46 86.5606 269.12 87.1337L269.226 86.4803H270.594V86.4856ZM268.997 89.4958C268.997 88.9227 268.838 88.4407 268.518 88.0496C268.183 87.6426 267.742 87.4497 267.209 87.4605C266.528 87.4765 265.959 87.7818 265.501 88.371C265.076 88.9281 264.863 89.5655 264.863 90.2886C264.863 90.8564 265.006 91.3277 265.289 91.6973C265.597 92.099 266.023 92.2865 266.571 92.2704C267.22 92.2543 267.789 91.9544 268.279 91.3705C268.758 90.8135 268.997 90.1922 268.997 89.4958Z" fill="#423D3F"/>
<path fill-rule="evenodd" clip-rule="evenodd" d="M278.911 81.0811L277.261 93.2773H275.814L275.936 92.5703C275.298 93.1756 274.547 93.4809 273.685 93.4809C272.946 93.4809 272.334 93.2184 271.844 92.6989C271.323 92.1472 271.057 91.4187 271.057 90.5189C271.057 89.4797 271.355 88.5424 271.945 87.7122C272.626 86.748 273.515 86.266 274.616 86.266C275.468 86.266 276.154 86.5659 276.676 87.1658L277.495 81.0811H278.911ZM276.516 89.5869C276.516 88.1889 275.926 87.4872 274.744 87.4872C274.063 87.4872 273.494 87.7818 273.036 88.371C272.61 88.9013 272.398 89.4958 272.398 90.1493C272.398 90.7492 272.6 91.2527 273.01 91.6544C273.398 92.04 273.856 92.2382 274.377 92.2382C274.989 92.2382 275.505 91.9543 275.92 91.3866C276.314 90.8563 276.516 90.2564 276.516 89.5869Z" fill="#423D3F"/>
<path fill-rule="evenodd" clip-rule="evenodd" d="M285.967 89.2708C285.967 90.3207 285.61 91.2527 284.892 92.0775C284.099 92.9774 283.109 93.4273 281.917 93.4273C281.156 93.4273 280.491 93.1756 279.927 92.6667C279.289 92.0883 278.969 91.333 278.969 90.3957C278.969 89.3619 279.336 88.4353 280.076 87.6265C280.853 86.7748 281.8 86.3463 282.902 86.3463C283.79 86.3463 284.514 86.6034 285.073 87.1069C285.669 87.6425 285.967 88.3603 285.967 89.2708ZM284.674 89.5708C284.674 88.9441 284.503 88.4567 284.157 88.1085C283.817 87.7657 283.359 87.589 282.795 87.589C282.04 87.589 281.406 87.8836 280.901 88.4728C280.443 89.0084 280.214 89.6029 280.214 90.2618C280.214 90.8777 280.422 91.3705 280.842 91.7347C281.204 92.0454 281.619 92.1954 282.098 92.1954C282.8 92.1954 283.412 91.9169 283.929 91.3598C284.429 90.8295 284.674 90.2296 284.674 89.5708Z" fill="#423D3F"/>
<path fill-rule="evenodd" clip-rule="evenodd" d="M135.915 57.1545C133.898 55.7029 131.983 54.9798 130.174 54.9959C127.721 55.0227 125.656 55.869 123.985 57.5455C122.25 59.297 121.41 61.4984 121.463 64.1498C121.511 66.7476 122.229 68.8473 123.613 70.4595C125.118 72.1842 127.242 73.1216 129.971 73.2662C131.951 73.3733 133.93 72.5913 135.899 70.9309V74.5731C135.463 74.9106 134.649 75.2534 133.451 75.6015C132.095 75.9926 130.849 76.18 129.732 76.1693C126.278 76.1158 123.511 74.9106 121.426 72.5485C119.441 70.3149 118.451 67.5082 118.451 64.1177C118.451 60.8075 119.59 57.9633 121.873 55.5904C124.155 53.2015 126.874 52.0392 130.025 52.1035C131.908 52.141 133.861 52.6873 135.878 53.7372L135.915 57.1545Z" fill="#554F50" stroke="#554F50" stroke-width="1.5533" stroke-miterlimit="3.8637"/>
<path fill-rule="evenodd" clip-rule="evenodd" d="M162.266 64.1445C162.266 67.4547 161.105 70.2882 158.785 72.6342C156.476 74.9857 153.72 76.1587 150.5 76.1587C147.382 76.1587 144.674 75.066 142.364 72.886C139.97 70.6256 138.773 67.8832 138.773 64.648C138.773 60.9093 139.853 57.8777 142.008 55.553C144.2 53.1748 147.137 51.9911 150.82 51.9911C153.911 51.9911 156.593 53.1802 158.86 55.553C161.132 57.9205 162.266 60.7808 162.266 64.1445ZM159.105 64.0481C159.105 61.5574 158.264 59.4203 156.583 57.642C154.901 55.8637 152.868 54.9745 150.484 54.9745C148.042 54.9745 145.951 55.8637 144.221 57.642C142.503 59.4203 141.641 61.5735 141.641 64.107C141.641 66.5977 142.503 68.7349 144.221 70.5132C145.94 72.2914 147.999 73.1806 150.394 73.1806C152.826 73.1806 154.896 72.27 156.604 70.4542C158.269 68.6759 159.105 66.5388 159.105 64.0481Z" fill="#554F50" stroke="#554F50" stroke-width="1.5533" stroke-miterlimit="3.8637"/>
<path fill-rule="evenodd" clip-rule="evenodd" d="M183.061 76.1586H179.772L177.096 70.8773H167.448L164.868 76.1586H161.67L172.088 52.7249L183.061 76.1586ZM175.92 68.2849L172.083 59.8916L168.529 68.2849H175.92Z" fill="#554F50" stroke="#554F50" stroke-width="1.5533" stroke-miterlimit="3.8637"/>
<path fill-rule="evenodd" clip-rule="evenodd" d="M206.128 75.4569L189.356 60.079V76.1586H186.285V52.6605L203.1 67.8885V51.9053H206.128V75.4569Z" fill="#554F50" stroke="#554F50" stroke-width="1.5533" stroke-miterlimit="3.8637"/>
<path d="M213.04 51.8679H209.991V76.1587H213.04V51.8679Z" fill="#554F50" stroke="#554F50" stroke-width="1.5533" stroke-miterlimit="3.8637"/>
<path fill-rule="evenodd" clip-rule="evenodd" d="M241.306 76.1586H237.395L234.569 73.8393C233.947 74.3428 233.069 74.8303 231.93 75.3016C230.446 75.8855 229.11 76.1372 227.929 76.0622C224.337 75.8265 221.49 74.5839 219.383 72.3235C217.35 70.1435 216.307 67.3475 216.259 63.9302C216.211 60.4915 217.393 57.5937 219.814 55.2476C222.182 52.9498 225.018 51.825 228.322 51.8785C231.675 51.9428 234.436 53.1319 236.607 55.4405C238.741 57.7115 239.805 60.5022 239.805 63.8124C239.805 65.3818 239.417 67.0797 238.645 68.8955C237.97 70.4917 237.326 71.5361 236.698 72.0289L241.306 76.1586ZM236.836 63.9677C236.9 61.4877 236.059 59.3506 234.314 57.5616C232.569 55.7672 230.488 54.862 228.067 54.8352C225.625 54.8084 223.517 55.7136 221.745 57.5401C219.974 59.3559 219.101 61.5306 219.127 64.0641C219.143 66.5709 220.005 68.7187 221.729 70.5077C223.464 72.3021 225.518 73.1698 227.902 73.1162C229.461 73.0788 230.914 72.6181 232.26 71.7343L227.843 67.4332H231.733L234.426 69.9078C235.969 68.2581 236.778 66.2763 236.836 63.9677Z" fill="#554F50" stroke="#554F50" stroke-width="1.5533" stroke-miterlimit="3.8637"/>
<path fill-rule="evenodd" clip-rule="evenodd" d="M274.877 76.1586H263.112V51.9535H274.877V55.0334H266.034V61.3377H274.75V64.0801H266.034V73.0787H274.877V76.1586Z" fill="#554F50" stroke="#554F50" stroke-width="1.5533" stroke-miterlimit="3.8637"/>
<path fill-rule="evenodd" clip-rule="evenodd" d="M303.489 76.1373H300.461L297.636 62.2538L290.756 75.5802L283.833 62.7626L280.896 76.1587H277.884L282.636 52.8695L290.734 68.6277L298.684 52.832L303.489 76.1373Z" fill="#554F50" stroke="#554F50" stroke-width="1.5533" stroke-miterlimit="3.8637"/>
<path d="M259.882 51.3323V68.4885C259.882 72.9985 256.248 76.6568 251.767 76.6568H250.693C246.212 76.6568 242.578 72.9985 242.578 68.4885V51.3323H246.526L246.521 51.5358V68.1242C246.521 70.5828 248.5 72.57 250.937 72.57H251.523C253.965 72.57 255.939 70.5774 255.939 68.1242V51.5304L255.934 51.3269H259.882V51.3323Z" fill="#554F50"/>
<path d="M37 18H96.7194V45.0064H63.1908V78.9654H37V18Z" fill="#D3D1D2"/>
<path fill-rule="evenodd" clip-rule="evenodd" d="M96.6136 45.0815C94.9002 29.8696 82.2731 18.0536 66.9482 18.0536C50.4525 18.0536 37.0858 31.7389 37.0858 48.6166C37.0858 64.2249 48.521 77.1014 63.2819 78.9493L63.2872 63.2072C56.9124 61.5039 52.2032 55.5316 52.2032 48.4774C52.2032 40.0947 58.844 33.2976 67.0386 33.2976C74.0998 33.2976 80.0435 38.354 81.5388 45.119H96.6136V45.0815Z" fill="#DA3731"/>
<path d="M111.731 48.7184H66.7935V93.9416H111.731V48.7184Z" fill="#D3D1D2"/>
<path d="M81.7137 48.7399H96.7726V63.775H111.709V78.928H96.7726V93.9631H81.7137V78.928H66.7772V63.775H81.7137V48.7399Z" fill="#DA3731"/>
</g>
<path d="M0.75 57.5C0.75 26.1578 26.1578 0.75 57.5 0.75H328.25V114.25H57.5C26.1578 114.25 0.75 88.8422 0.75 57.5Z" stroke="#DB3932" stroke-width="1.5"/>
<defs>
<clipPath id="clip0">
<rect width="267" height="79" fill="white" transform="translate(37 18)"/>
</clipPath>
</defs>
</svg>
