<svg width="34" height="34" viewBox="0 0 34 34" fill="none" xmlns="http://www.w3.org/2000/svg">
<path d="M16.9592 33.9185C26.3256 33.9185 33.9185 26.3256 33.9185 16.9592C33.9185 7.59291 26.3256 0 16.9592 0C7.59291 0 0 7.59291 0 16.9592C0 26.3256 7.59291 33.9185 16.9592 33.9185Z" fill="white"/>
<path fill-rule="evenodd" clip-rule="evenodd" d="M14.9209 17.0408V24.7866C14.9209 24.8681 15.0024 24.9496 15.0839 24.9496H17.9376C18.0192 24.9496 18.1007 24.8681 18.1007 24.7866V16.9592H20.1391C20.2206 16.9592 20.3022 16.8777 20.3022 16.7962L20.4652 14.4316C20.4652 14.3501 20.3837 14.187 20.3022 14.187H18.0192V12.4748C18.0192 12.0671 18.3453 11.741 18.753 11.741H20.3837C20.4652 11.741 20.5468 11.6595 20.5468 11.5779V9.21342C20.5468 9.13189 20.4652 9.05035 20.3837 9.05035H17.693C16.1439 9.05035 14.8393 10.3549 14.8393 11.9041V14.187H13.3717C13.2902 14.187 13.2086 14.2686 13.2086 14.3501V16.7146C13.2086 16.7962 13.2902 16.8777 13.3717 16.8777H14.8393V17.0408" fill="#969696"/>
</svg>
